# xmcd CD database file
#
# Track frame offsets:
#	150
#	21580
#	39955
#	56337
#	72575
#	84670
#	95342
#	119207
#	139415
#	157750
#	176517
#	193275
#	205212
#
# Disc length: 2919 seconds
#
# Revision: 0
# Processed by: cddbd v1.4PL0 Copyright (c) Steve Scherf et al.
# Submitted via: CDex 1.40Release
#
DISCID=be0b650d
DTITLE=Deep In The Heart Of Texas - Various
DYEAR=1998
DGENRE=Country
TTITLE0=Just A Wave, Not The Water(Jimmie Dale Gilmore)
TTITLE1=Just One Love(Willie Nelson and Kimmie Rhodes)
TTITLE2=Deep In The West(Waylon Jennings and Jesse Coulter)
TTITLE3=Panhandle Jane(Jesse Dayton)
TTITLE4=Rolling Stone From Texas(Don Walser)
TTITLE5=Hill Country Hillbilly Gal(Wayne Hancock)
TTITLE6=Boxcars(Rosie Flores)
TTITLE7=Voodoo Man(Lavelle White)
TTITLE8=Stop These Teardrops(Lou Ann Barton)
TTITLE9=Lone Star Shootout(Long John Hunter)
TTITLE10=La Ti Da(Marcia Ball)
TTITLE11=This Time Lucille(Walter Hyatt)
TTITLE12=Last Call(Walter Hyatt)
EXTD=YEAR: 1998 ID3G: 2
EXTT0=
EXTT1=
EXTT2=
EXTT3=
EXTT4=
EXTT5=
EXTT6=
EXTT7=
EXTT8=
EXTT9=
EXTT10=
EXTT11=
EXTT12=
PLAYORDER=
